<?xml version="1.0" standalone="no"?><!DOCTYPE svg PUBLIC "-//W3C//DTD SVG 1.1//EN" "http://www.w3.org/Graphics/SVG/1.1/DTD/svg11.dtd"><svg _ngcontent-txj-c16="" xmlns:xlink="http://www.w3.org/1999/xlink" height="18px" version="1.1" viewBox="0 0 18 18" width="18px" class="ng-star-inserted" xmlns="http://www.w3.org/2000/svg"><defs xmlns="http://www.w3.org/1999/xhtml"><style type="text/css"><![CDATA[]]></style></defs><desc _ngcontent-txj-c16="">Created with Sketch.</desc><g _ngcontent-txj-c16="" fill="none" fill-rule="evenodd" id="Admin-Panel" stroke="none" stroke-width="1"><g _ngcontent-txj-c16="" id="Step-1-Copy-3" transform="translate(-16.000000, -313.000000)"><g _ngcontent-txj-c16="" id="Group-2"><g _ngcontent-txj-c16="" id="Side-Menu"><g _ngcontent-txj-c16="" id="Cart" transform="translate(15.000000, 311.000000)"><polygon _ngcontent-txj-c16="" id="Path_55" points="0 0 22 0 22 22 0 22"/><path _ngcontent-txj-c16="" class="fill-color" d="M6.38,16.2789989 C5.40797884,16.2789989 4.62,17.0669788 4.62,18.039 C4.62,19.0110212 5.40797884,19.799 6.38,19.799 C7.35202116,19.799 8.14000114,19.0110212 8.14000114,18.039 C8.14053152,17.5720562 7.95527418,17.1240845 7.62509486,16.7939051 C7.29491554,16.4637258 6.84694376,16.2784685 6.38,16.2789989 L6.38,16.2789989 Z M1.1,3.079 C1.10164612,3.5643271 1.4946729,3.95735388 1.98,3.959 L2.86,3.959 L6.028,10.638 L4.84,12.785 C4.53932765,13.3305206 4.54883724,13.9942145 4.8650157,14.5308966 C5.18119416,15.0675788 5.75710793,15.397584 6.38,15.399 L16.061,15.399 C16.5470106,15.399 16.941,15.0050106 16.941,14.519 C16.941,14.0329894 16.5470106,13.639 16.061,13.639 L6.38,13.639 L7.348,11.879 L13.905,11.879 C14.5453271,11.8811157 15.1358027,11.533732 15.445,10.973 L18.6,5.261 C18.7493995,4.98966581 18.7445889,4.65964611 18.5873442,4.39278179 C18.4300995,4.12591747 18.1437448,3.96179226 17.834,3.961 L4.805,3.961 L4.215,2.69899755 C4.07012516,2.39300304 3.76155904,2.19820119 3.423,2.19899755 L1.98,2.19899755 C1.4946729,2.20064612 1.10164612,2.5936729 1.1,3.079 Z M15.181,16.2789989 C14.2089788,16.2789989 13.421,17.0669788 13.421,18.039 C13.421,19.0110212 14.2089788,19.799 15.181,19.799 C16.1530212,19.799 16.9410011,19.0110212 16.9410011,18.039 C16.9415315,17.5720562 16.7562742,17.1240845 16.4260949,16.7939051 C16.0959155,16.4637258 15.6479438,16.2784685 15.181,16.2789989 L15.181,16.2789989 Z" fill="#677791" fill-rule="nonzero" id="Path_56"/></g></g></g></g></g></svg>