<?xml version="1.0" standalone="no"?><!DOCTYPE svg PUBLIC "-//W3C//DTD SVG 1.1//EN" "http://www.w3.org/Graphics/SVG/1.1/DTD/svg11.dtd"><svg _ngcontent-txj-c16="" xmlns:xlink="http://www.w3.org/1999/xlink" height="12px" version="1.1" viewBox="0 0 21 12" width="21px" class="ng-star-inserted" xmlns="http://www.w3.org/2000/svg"><defs xmlns="http://www.w3.org/1999/xhtml"><style type="text/css"><![CDATA[]]></style></defs><desc _ngcontent-txj-c16="">Created with Sketch.</desc><defs _ngcontent-txj-c16=""><path _ngcontent-txj-c16="" d="M9.88,1.702 C10.8321707,1.69857432 11.7799911,1.83056209 12.695,2.094 C13.0632341,2.17339997 13.3105846,2.51995068 13.266,2.894 C13.2219369,3.09178041 13.0997212,3.26331605 12.9271761,3.36955559 C12.7546311,3.47579513 12.5464403,3.50769754 12.35,3.458 C11.771743,3.28768089 11.1777038,3.17644511 10.577,3.126 L9.88,3.126 C5.53802112,3.07973405 1.87799425,6.35371874 1.442,10.674 L1.442,10.674 C1.40543492,11.0445167 1.09381652,11.3268962 0.7215,11.3268962 C0.349183477,11.3268962 0.037565081,11.0445167 0.001,10.674 L0.001,10.674 C0.434548675,5.55684851 4.74486261,1.64226842 9.88,1.702 M19.493,9.044 C19.6288501,9.56840871 19.7178664,10.1038447 19.759,10.644 C19.7224349,11.0145167 19.4108165,11.2968962 19.0385,11.2968962 C18.6661835,11.2968962 18.3545651,11.0145167 18.318,10.644 C18.3008003,10.0984207 18.1996124,9.55875188 18.018,9.044 C17.7249258,8.08039415 17.2545346,7.17996985 16.631,6.389 C16.4231084,6.08679778 16.4837543,5.67536545 16.77,5.446 C17.0423928,5.23112816 17.4266072,5.23112816 17.699,5.446 C18.5448179,6.50537443 19.1556634,7.73251934 19.491,9.046 M18.243,1.08 C18.301543,1.13517349 18.3347308,1.21205498 18.3347308,1.2925 C18.3347308,1.37294502 18.301543,1.44982651 18.243,1.505 L11.206,10.248 C10.8824025,10.6128874 10.4227208,10.828271 9.93524875,10.8434099 C9.44777673,10.8585488 8.97561591,10.6721044 8.63,10.328 C8.06362273,9.63471468 8.14900532,8.61720194 8.823,8.028 L17.845,1.077 C17.9628075,0.973432748 18.1391925,0.973432748 18.257,1.077" id="path-1"/></defs><g _ngcontent-txj-c16="" fill="none" fill-rule="evenodd" id="Admin-Panel" stroke="none" stroke-width="1"><g _ngcontent-txj-c16="" id="Step-1-Copy-3" transform="translate(-16.000000, -143.000000)"><g _ngcontent-txj-c16="" id="Group-2"><g _ngcontent-txj-c16="" id="Side-Menu"><g _ngcontent-txj-c16="" id="Dashboard" transform="translate(16.276000, 142.854000)"><mask _ngcontent-txj-c16="" fill="white" id="mask-2"><use _ngcontent-txj-c16="" xlink:href="#path-1"/></mask><use _ngcontent-txj-c16="" xlink:href="#path-1" class="fill-color" fill="#677791" id="Path_6"/></g></g></g></g></g></svg>