<?xml version="1.0" standalone="no"?><!DOCTYPE svg PUBLIC "-//W3C//DTD SVG 1.1//EN" "http://www.w3.org/Graphics/SVG/1.1/DTD/svg11.dtd"><svg _ngcontent-txj-c16="" xmlns:xlink="http://www.w3.org/1999/xlink" height="22px" version="1.1" viewBox="0 0 20 22" width="20px" class="ng-star-inserted" xmlns="http://www.w3.org/2000/svg"><defs xmlns="http://www.w3.org/1999/xhtml"><style type="text/css"><![CDATA[]]></style></defs><desc _ngcontent-txj-c16="">Created with Sketch.</desc><g _ngcontent-txj-c16="" fill="none" fill-rule="evenodd" id="Admin-Panel" stroke="none" stroke-width="1"><g _ngcontent-txj-c16="" id="Step-1-Copy-3" transform="translate(-16.000000, -250.000000)"><g _ngcontent-txj-c16="" id="Group-2"><g _ngcontent-txj-c16="" id="Side-Menu"><g _ngcontent-txj-c16="" class="fill-color" id="Inventory" transform="translate(17.000000, 250.998000)"><polygon _ngcontent-txj-c16="" fill="#677791" fill-rule="nonzero" id="Path_54" points="9 0.002 0.292 5.065 0.292 14.985 9 19.86 18.039 14.985 17.594 5.065"/><g _ngcontent-txj-c16="" id="package_1_" stroke="#F5F5F5" stroke-linecap="round"><path _ngcontent-txj-c16="" d="M13.5,7.4 L4.5,2.502" id="Line_77" stroke-linejoin="round"/><path _ngcontent-txj-c16="" d="M18,14 L18,6 C17.9992679,5.28620161 17.6181681,4.62689901 17,4.27 L10,0.27 C9.38119785,-0.0872655899 8.61880215,-0.0872655899 8,0.27 L1,4.27 C0.38183192,4.62689901 0.00073214874,5.28620161 0,6 L0,14 C0.00073214874,14.7137984 0.38183192,15.373101 1,15.73 L8,19.73 C8.61880215,20.0872656 9.38119785,20.0872656 10,19.73 L17,15.73 C17.6181681,15.373101 17.9992679,14.7137984 18,14 Z" id="Path_50" stroke-linejoin="round"/><path _ngcontent-txj-c16="" d="M0.406,5.08 C2.589,6.343 9,10.01 9,10.01 L17.5,5.08" id="Path_51" stroke-linejoin="round"/><path _ngcontent-txj-c16="" d="M9,19.83 L9,10" id="Path_52"/></g></g></g></g></g></g></svg>