<?xml version="1.0" standalone="no"?><!DOCTYPE svg PUBLIC "-//W3C//DTD SVG 1.1//EN" "http://www.w3.org/Graphics/SVG/1.1/DTD/svg11.dtd"><svg _ngcontent-txj-c16="" xmlns:xlink="http://www.w3.org/1999/xlink" height="18px" version="1.1" viewBox="0 0 16 18" width="16px" class="ng-star-inserted" xmlns="http://www.w3.org/2000/svg"><defs xmlns="http://www.w3.org/1999/xhtml"><style type="text/css"><![CDATA[]]></style></defs><desc _ngcontent-txj-c16="">Created with Sketch.</desc><g _ngcontent-txj-c16="" fill="none" fill-rule="evenodd" id="Admin-Panel" stroke="none" stroke-width="1"><g _ngcontent-txj-c16="" id="Step-1-Copy-3" transform="translate(-18.000000, -372.000000)"><g _ngcontent-txj-c16="" id="Group-2"><g _ngcontent-txj-c16="" id="Side-Menu"><g _ngcontent-txj-c16="" id="Orders" transform="translate(15.000000, 371.000000)"><polygon _ngcontent-txj-c16="" id="Path_57" points="0 0 22 0 22 22 0 22"/><path _ngcontent-txj-c16="" class="fill-color" d="M16.989,2.86 L13.413,2.86 C13.0762196,1.81196219 12.1013198,1.10124174 11.0005,1.10124174 C9.89968019,1.10124174 8.92478037,1.81196219 8.588,2.86 L5.011,2.86 C4.05376513,2.87643844 3.28941076,3.66268256 3.29989129,4.62 L3.29989129,16.94 C3.28941076,17.8973174 4.05376513,18.6835616 5.011,18.7 L16.989,18.7 C17.9462349,18.6835616 18.7105892,17.8973174 18.7001087,16.94 L18.7001087,4.62 C18.7105892,3.66268256 17.9462349,2.87643844 16.989,2.86 Z M11,2.86 C11.3579492,2.85023414 11.686121,3.05833675 11.8299223,3.38627607 C11.9737235,3.7142154 11.9044744,4.09658696 11.6547962,4.35326541 C11.4051181,4.60994387 11.024807,4.68973706 10.6930177,4.55505648 C10.3612284,4.42037591 10.1441332,4.09808237 10.144,3.74 C10.1389824,3.26125927 10.5213035,2.86821883 11,2.86 L11,2.86 Z M8.681,14.56 L6.466,12.276 C6.13212794,11.9297007 6.13212794,11.3812993 6.466,11.035 C6.62349869,10.8705739 6.84131209,10.777595 7.069,10.777595 C7.29668791,10.777595 7.51450131,10.8705739 7.672,11.035 L9.289,12.69 L14.32,7.515 C14.4774987,7.35057388 14.6953121,7.25759501 14.923,7.25759501 C15.1506879,7.25759501 15.3685013,7.35057388 15.526,7.515 C15.8598721,7.86129929 15.8598721,8.40970071 15.526,8.756 L9.888,14.556 C9.73050131,14.7204261 9.51268791,14.813405 9.285,14.813405 C9.05731209,14.813405 8.83949869,14.7204261 8.682,14.556 L8.681,14.56 Z" fill="#677791" fill-rule="nonzero" id="Path_58"/></g></g></g></g></g></svg>