<?xml version="1.0" standalone="no"?><!DOCTYPE svg PUBLIC "-//W3C//DTD SVG 1.1//EN" "http://www.w3.org/Graphics/SVG/1.1/DTD/svg11.dtd"><svg _ngcontent-txj-c16="" xmlns:xlink="http://www.w3.org/1999/xlink" height="20px" version="1.1" viewBox="0 0 18 20" width="18px" class="ng-star-inserted" xmlns="http://www.w3.org/2000/svg"><defs xmlns="http://www.w3.org/1999/xhtml"><style type="text/css"><![CDATA[]]></style></defs><desc _ngcontent-txj-c16="">Created with Sketch.</desc><g _ngcontent-txj-c16="" fill="none" fill-rule="evenodd" id="Admin-Panel" stroke="none" stroke-width="1"><g _ngcontent-txj-c16="" id="Step-1-Copy-3" transform="translate(-18.000000, -491.000000)"><g _ngcontent-txj-c16="" id="Group-2"><g _ngcontent-txj-c16="" id="Side-Menu"><g _ngcontent-txj-c16="" id="Store-List" transform="translate(15.000000, 490.000000)"><polygon _ngcontent-txj-c16="" id="Path_57-2" points="0 0 24 0 24 24 0 24"/><path _ngcontent-txj-c16="" class="fill-color" d="M18.533,3.119 L14.633,3.119 C14.2661716,1.97500044 13.2023734,1.19896208 12.001,1.19896208 C10.7996266,1.19896208 9.73582836,1.97500044 9.369,3.119 L5.469,3.119 C4.42395065,3.13599369 3.58885987,3.99387186 3.59988947,5.039 L3.59988947,18.479 C3.58884959,19.523361 4.42273594,20.3809196 5.467,20.399 L18.533,20.399 C19.5772641,20.3809196 20.4111504,19.523361 20.4001105,18.479 L20.4001105,5.039 C20.4111504,3.99463895 19.5772641,3.13708041 18.533,3.119 Z M12,3.119 C12.3905533,3.10801137 12.7488049,3.33481233 12.905939,3.69252938 C13.0630731,4.05024643 12.9877385,4.46750845 12.7154345,4.7476926 C12.4431305,5.02787675 12.0281868,5.11508114 11.6661338,4.96821319 C11.3040807,4.82134524 11.0671546,4.4697078 11.067,4.079 C11.061422,3.55701107 11.4780643,3.12831159 12,3.119 L12,3.119 Z" fill="#677791" fill-rule="nonzero" id="Path_58-2"/><path _ngcontent-txj-c16="" d="M10,8 L17,8" id="Line_70-2" stroke="#F5F5F5" stroke-linecap="round" stroke-linejoin="round"/><path _ngcontent-txj-c16="" d="M10,12 L17,12" id="Line_71-2" stroke="#F5F5F5" stroke-linecap="round" stroke-linejoin="round"/><path _ngcontent-txj-c16="" d="M10,16 L17,16" id="Line_72-2" stroke="#F5F5F5" stroke-linecap="round" stroke-linejoin="round"/><path _ngcontent-txj-c16="" d="M7,8 L7,8" id="Line_73-2" stroke="#F5F5F5" stroke-linecap="round" stroke-linejoin="round"/><path _ngcontent-txj-c16="" d="M7,12 L7,12" id="Line_74-2" stroke="#F5F5F5" stroke-linecap="round" stroke-linejoin="round"/><path _ngcontent-txj-c16="" d="M7,16 L7,16" id="Line_75-2" stroke="#F5F5F5" stroke-linecap="round" stroke-linejoin="round"/></g></g></g></g></g></svg>