<?xml version="1.0" standalone="no"?><!DOCTYPE svg PUBLIC "-//W3C//DTD SVG 1.1//EN" "http://www.w3.org/Graphics/SVG/1.1/DTD/svg11.dtd"><svg _ngcontent-txj-c16="" xmlns:xlink="http://www.w3.org/1999/xlink" height="20px" version="1.1" viewBox="0 0 20 20" width="20px" class="ng-star-inserted" xmlns="http://www.w3.org/2000/svg"><defs xmlns="http://www.w3.org/1999/xhtml"><style type="text/css"><![CDATA[]]></style></defs><desc _ngcontent-txj-c16="">Created with Sketch.</desc><g _ngcontent-txj-c16="" fill="none" fill-rule="evenodd" id="Admin-Panel" stroke="none" stroke-width="1"><g _ngcontent-txj-c16="" id="Step-1-Copy-3" transform="translate(-17.000000, -432.000000)"><g _ngcontent-txj-c16="" id="Group-2"><g _ngcontent-txj-c16="" id="Side-Menu"><g _ngcontent-txj-c16="" id="Transactions" transform="translate(15.000000, 430.000000)"><polygon _ngcontent-txj-c16="" id="Path_59" points="0 0 24 0 24 24 0 24"/><path _ngcontent-txj-c16="" class="fill-color" d="M21.6,12 C21.6,6.6980664 17.3019336,2.4 12,2.4 C6.6980664,2.4 2.4,6.6980664 2.4,12 C2.4,17.3019336 6.6980664,21.6 12,21.6 C14.5460783,21.6 16.9878759,20.5885743 18.7882251,18.7882251 C20.5885743,16.9878759 21.6,14.5460783 21.6,12 Z M14.88,6.72 L17.9,9.744 C17.992257,9.83346281 18.044328,9.95648948 18.044328,10.085 C18.044328,10.2135105 17.992257,10.3365372 17.9,10.426 L14.88,13.44 L14.88,11.04 L11.04,11.04 L11.04,9.12 L14.88,9.12 L14.88,6.72 Z M9.12,17.28 L6.1,14.256 C6.00774297,14.1665372 5.95567204,14.0435105 5.95567204,13.915 C5.95567204,13.7864895 6.00774297,13.6634628 6.1,13.574 L9.12,10.56 L9.12,12.96 L12.96,12.96 L12.96,14.88 L9.12,14.88 L9.12,17.28 Z" fill="#677791" fill-rule="nonzero" id="Path_60"/></g></g></g></g></g></svg>